<svg xmlns="http://www.w3.org/2000/svg" xml:space="preserve" id="racoon" x="0" y="0" enable-background="new 0 0 512 512" version="1.1" viewBox="0 0 512 512">
  <g>
    <g>
      <path fill="#423a34" d="M113.36,127.86c4.55-4.82,21.69-4.12,56.18,12.3c17.09,8.14,33.2,17.64,41.83,22.94
			c-6.3,3.34-13.08,7.84-20.01,13.89c-3.09,2.7-3.41,7.39-0.71,10.49c1.47,1.68,3.53,2.55,5.6,2.55c1.73,0,3.47-0.6,4.88-1.83
			c23.39-20.41,43.51-19.85,44.74-19.79c0.19,0.01,0.28,0.01,0.47,0.01h20.1c0.2,0,0.28,0,0.46-0.01c0.76-0.03,17.08-0.41,36.9,13.6
			c3.35,2.37,7.99,1.57,10.36-1.78c2.37-3.35,1.57-7.99-1.78-10.36c-3.92-2.77-7.74-5.07-11.39-6.98
			c8.72-5.34,24.61-14.69,41.47-22.72c34.48-16.43,51.63-17.13,56.18-12.3c1.94,2.06,3.6,4.4,4.99,7c-0.35-0.19-0.7-0.38-1.07-0.56
			c-6.68-3.23-15.14-2.88-25.16,1.04c-31.11,12.17-45.61,54.75-46.21,56.56c-0.71,2.12,0.09,4.45,1.95,5.69
			c0.13,0.09,12.83,8.6,18.03,14.94c3.64,4.45,1.33,9.89,1.25,10.08c-0.78,1.69-0.54,3.66,0.61,5.12c1.14,1.46,3.02,2.16,4.84,1.81
			c1.87-0.36,5.23-0.34,6.39,0.61c0.12,0.1,0.45,0.37,0.45,1.53v9.56c0,1.48,0.64,2.88,1.78,3.82c1.14,0.94,2.62,1.33,4.07,1.05
			c1.13-0.19,4.54-0.34,6.78,1.29c1.46,1.06,2.35,2.82,2.71,5.37c0.1,0.7,0.34,1.34,0.69,1.9c0,0.04,0,0.08,0.01,0.13
			c0.14,1.29,0.93,7.6,3.25,15.08c-6.19-2.1-12.48-7.76-19.95-14.47c-10.65-9.57-23.9-21.47-42.36-26.59
			c-15.51-4.3-31.47-1.46-46.15,8.2c-8.94,5.89-14.83,12.6-16.79,15c-3.93,2-5.64,0.93-6.02,0.63c-1.2-1.54-7.36-9.09-17.29-15.63
			c-14.69-9.67-30.64-12.5-46.15-8.2c-18.46,5.12-31.71,17.03-42.36,26.59c-6.99,6.28-12.95,11.63-18.76,14.02
			c2.21-7.28,2.97-13.36,3.11-14.63c0-0.04,0.01-0.08,0.01-0.13c0.35-0.56,0.59-1.2,0.69-1.9c0.36-2.55,1.25-4.31,2.71-5.37
			c2.24-1.63,5.66-1.48,6.74-1.29c1.45,0.28,2.95-0.11,4.09-1.05c1.14-0.94,1.8-2.34,1.8-3.82v-9.56c0-1.16,0.33-1.43,0.45-1.53
			c1.16-0.96,4.51-0.97,6.36-0.62c1.85,0.37,3.77-0.27,4.92-1.76c1.15-1.49,1.39-3.44,0.57-5.13c-0.1-0.23-2.41-5.67,1.23-10.12
			c5.19-6.35,17.9-14.86,18.03-14.94c1.86-1.24,2.66-3.57,1.95-5.69c-0.6-1.81-15.11-44.39-46.21-56.56
			c-10.02-3.92-18.48-4.27-25.16-1.04c-0.37,0.18-0.72,0.37-1.07,0.56C109.76,132.27,111.42,129.92,113.36,127.86z"></path>
      <path d="M252.94,252.95c0,0,0-0.01-0.02-0.02c-0.02-0.02-0.05-0.07-0.11-0.15c0-0.01-0.01-0.01,0-0.01
			C252.81,252.77,252.94,252.95,252.94,252.95z"></path>
      <path fill="#ffb8c1" d="M114.96,215.2c-7.67-21.66-11.6-39.86-11.81-54.52c0.17-0.17,0.34-0.35,0.49-0.55
			c0.82-1.09,1.2-2.33,1.78-4.22c1.17-3.8,3.11-10.17,8.34-12.69c4.09-1.98,9.89-1.52,17.24,1.35
			c22.08,8.64,35.16,37.12,39.13,47.03c-4.51,3.22-12.59,9.33-16.95,14.66c-3.72,4.55-4.47,9.45-4.24,13.32
			c-2.51,0.3-5.24,1.1-7.45,2.91c-1.86,1.53-4.08,4.36-4.08,9.2v4.53c-2.58,0.28-5.65,1.1-8.44,3.09c-1,0.72-2.11,1.7-3.15,3.02
			C123.39,237.28,119.8,228.85,114.96,215.2z"></path>
      <path fill="#c6b6ab" d="M397.2,292.67c2.18,1.94,4.07,3.5,5.74,4.89c1.78,1.47,3.76,3.12,4.57,4.04c-0.14,0.43-0.45,1.18-1.1,2.4
			c-3.85,7.22-10.75,10.85-10.78,10.86c-1.98,0.96-3.48,2.6-4.02,4.74c-0.53,2.12-0.15,4.21,1.12,5.98c0.39,0.67,2.29,4.4-0.23,8.81
			c-4.01,7.01-10.06,11.92-23.11,18.76c-4.45,2.33-9.62,5.51-15.08,8.86c-10.45,6.42-23.46,14.41-31.27,15.9
			c-1.06,0.2-2.01,0.62-2.84,1.2c-0.63,0.04-1.26,0.15-1.89,0.35c-12.46,4.09-27.38,6.52-44.36,7.24h-35.08
			c-15.11-0.64-28.63-2.64-40.17-5.95l-9-2.66c-0.24-0.07-0.48-0.13-0.72-0.17c-7.81-1.49-20.82-9.48-31.27-15.9
			c-5.47-3.36-10.63-6.53-15.08-8.86c-13.06-6.84-19.11-11.75-23.11-18.76c-2.52-4.41-0.62-8.13-0.23-8.81
			c1.26-1.76,1.6-3.85,1.09-5.95c-0.52-2.12-2.03-3.79-3.99-4.76c-0.07-0.03-6.91-3.6-10.78-10.86c-0.65-1.22-0.96-1.97-1.1-2.4
			c0.81-0.93,2.79-2.57,4.57-4.04c1.67-1.38,3.56-2.95,5.74-4.89c3.74-3.32,6.66-7.59,8.93-12.05c10.81-0.76,19.69-8.73,29.81-17.82
			c10.39-9.34,22.17-19.92,38.38-24.42c12.76-3.54,25.48-1.26,37.8,6.76c9.52,6.2,15.23,13.67,15.28,13.73
			c0.03,0.05,0.07,0.09,0.1,0.13c0.28,0.34,6.9,8.3,19.34,1.19c0.59-0.34,1.1-0.79,1.5-1.33c0.22-0.29,22.24-29.05,53.08-20.5
			c16.22,4.5,27.99,15.08,38.38,24.42c10.45,9.39,19.59,17.59,30.89,17.88C390.56,285.12,393.47,289.36,397.2,292.67z"></path>
      <path fill="#ffb8c1" d="M397.04,215.2c-4.83,13.65-8.43,22.08-10.86,27.14c-1.04-1.32-2.14-2.31-3.15-3.02
			c-2.79-1.99-5.85-2.81-8.44-3.09v-4.53c0-4.84-2.22-7.67-4.08-9.2c-2.21-1.82-4.95-2.61-7.45-2.91c0.23-3.87-0.51-8.77-4.24-13.32
			c-4.36-5.33-12.44-11.44-16.95-14.66c3.96-9.91,16.99-38.36,39.13-47.03c7.35-2.87,13.15-3.33,17.24-1.35
			c5.23,2.53,7.18,8.89,8.34,12.69c0.58,1.88,0.96,3.12,1.78,4.22c0.15,0.2,0.32,0.38,0.49,0.55
			C408.64,175.34,404.71,193.54,397.04,215.2z"></path>
      <path d="M355.63,285.21c-14.02-18.47-36.31-15.29-36.31-15.29c-19.11-0.64-49.69,26.76-43.96,50.33
			c5.73,23.57,31.85,29.94,63.07,28.67c31.21-1.27,42.04-19.11,38.22-31.21S369.65,303.68,355.63,285.21z"></path>
      <path fill="#fff" d="M323.27,311.33c0,1.4-0.36,2.71-1.06,3.92c-0.41,0.52-0.81,1.05-1.22,1.57c-0.97,0.96-2.11,1.63-3.43,2
			c-0.69,0.09-1.38,0.19-2.07,0.28c-1.07,0.04-2.07-0.18-3-0.67c-0.96-0.31-1.8-0.85-2.5-1.61c-0.76-0.7-1.29-1.54-1.61-2.5
			c-0.49-0.93-0.71-1.93-0.67-3v-0.64c0-1.4,0.36-2.71,1.06-3.92c0.41-0.52,0.81-1.05,1.22-1.57c0.97-0.96,2.11-1.63,3.43-2
			c0.69-0.09,1.38-0.19,2.07-0.28c1.07-0.04,2.07,0.18,3,0.67c0.96,0.31,1.8,0.85,2.5,1.61c0.76,0.7,1.29,1.54,1.61,2.5
			c0.49,0.93,0.71,1.93,0.67,3V311.33z"></path>
      <path d="M192.68,269.92c0,0-22.3-3.19-36.31,15.29c-14.01,18.47-17.2,20.39-21.02,32.49c-3.82,12.1,7.01,29.94,38.22,31.21
			c31.21,1.27,57.33-5.1,63.07-28.67C242.37,296.68,211.79,269.28,192.68,269.92z"></path>
      <path fill="#fff" d="M204.28,311.33c0.04,1.07-0.18,2.07-0.67,3c-0.31,0.96-0.85,1.8-1.61,2.5c-0.7,0.76-1.54,1.29-2.5,1.61
			c-0.93,0.49-1.93,0.71-3,0.67c-0.69-0.09-1.38-0.19-2.07-0.28c-1.32-0.37-2.46-1.04-3.43-2c-0.41-0.52-0.81-1.05-1.22-1.57
			c-0.7-1.21-1.06-2.52-1.06-3.92v-0.64c-0.04-1.07,0.18-2.07,0.67-3c0.31-0.96,0.85-1.8,1.61-2.5c0.7-0.76,1.54-1.29,2.5-1.61
			c0.93-0.49,1.93-0.71,3-0.67c0.69,0.09,1.38,0.19,2.07,0.28c1.32,0.37,2.46,1.04,3.43,2c0.41,0.52,0.81,1.05,1.22,1.57
			c0.7,1.21,1.06,2.52,1.06,3.92V311.33z"></path>
      <path d="M274.43,335.16c0.26,7.54-11.43,14.03-11.43,14.03c-1.3,1.56-3.93,0-3.93,0s-11.69-6.5-11.43-14.03
			c0.26-7.54,10.13-7.02,10.13-7.02h6.52C264.29,328.15,274.17,327.63,274.43,335.16z"></path>
    </g>
    <path d="M423.4,167.67c1.61-21.65-3.08-38.48-13.95-50c-6.71-7.11-18.04-9-33.67-5.6c-10.89,2.37-24.29,7.33-39.83,14.74
		c-26.02,12.41-49.02,27.32-49.99,27.95c-0.62,0.4-1.16,0.89-1.62,1.43c-9.7-2.75-16.49-2.69-18.07-2.63h-19.76
		c-1.62-0.06-8.67-0.14-18.72,2.81c-0.49-0.61-1.07-1.16-1.76-1.61c-0.97-0.63-23.96-15.54-49.99-27.95
		c-15.54-7.41-28.94-12.37-39.83-14.74c-15.64-3.4-26.97-1.52-33.67,5.6c-10.87,11.53-15.56,28.35-13.95,50
		c1.12,15.01,5.16,32.18,12.35,52.49c7.52,21.25,12.46,31.13,15.17,35.61c-1.16,6.91-4.51,19.85-11.19,25.79
		c-1.99,1.77-3.78,3.25-5.35,4.56c-7.26,6.02-14.12,11.71-7.1,24.88c3.33,6.24,7.88,10.64,11.49,13.43
		c-1.1,4.82-0.97,11.03,2.63,17.34c6.32,11.05,15.83,17.59,29.12,24.56c4,2.1,8.96,5.14,14.2,8.36
		c12.52,7.69,25.46,15.64,35.88,17.76l8.69,2.57c0.02,0.01,0.04,0.01,0.06,0.02c12.72,3.65,27.47,5.85,43.83,6.53
		c0.1,0,0.21,0.01,0.31,0.01h35.39c0.1,0,0.21,0,0.31-0.01c18.4-0.77,34.73-3.45,48.52-7.97c0.7-0.23,1.34-0.56,1.92-0.96
		c0.32-0.02,0.64-0.05,0.96-0.11c10.49-2,23.6-10.05,36.27-17.84c5.24-3.22,10.2-6.26,14.2-8.36c13.3-6.97,22.81-13.5,29.12-24.56
		c3.6-6.31,3.73-12.51,2.63-17.34c3.61-2.79,8.16-7.2,11.49-13.43c7.02-13.17,0.16-18.86-7.1-24.88c-1.58-1.31-3.36-2.79-5.35-4.56
		c-6.64-5.9-10.02-18.87-11.19-25.8c2.72-4.49,7.65-14.37,15.17-35.6C418.24,199.85,422.28,182.68,423.4,167.67z M113.36,127.86
		c4.55-4.82,21.69-4.12,56.18,12.3c17.09,8.14,33.2,17.64,41.83,22.94c-6.3,3.34-13.08,7.84-20.01,13.89
		c-3.09,2.7-3.41,7.39-0.71,10.49c1.47,1.68,3.53,2.55,5.6,2.55c1.73,0,3.47-0.6,4.88-1.83c23.39-20.41,43.51-19.85,44.74-19.79
		c0.19,0.01,0.28,0.01,0.47,0.01h20.1c0.2,0,0.28,0,0.46-0.01c0.76-0.03,17.08-0.41,36.9,13.6c3.35,2.37,7.99,1.57,10.36-1.78
		c2.37-3.35,1.57-7.99-1.78-10.36c-3.92-2.77-7.74-5.07-11.39-6.98c8.72-5.34,24.61-14.69,41.47-22.72
		c34.48-16.43,51.63-17.13,56.18-12.3c1.94,2.06,3.6,4.4,4.99,7c-0.35-0.19-0.7-0.38-1.07-0.56c-6.68-3.23-15.14-2.88-25.16,1.04
		c-31.11,12.17-45.61,54.75-46.21,56.56c-0.71,2.12,0.09,4.45,1.95,5.69c0.13,0.09,12.83,8.6,18.03,14.94
		c3.64,4.45,1.33,9.89,1.25,10.08c-0.78,1.69-0.54,3.66,0.61,5.12c1.14,1.46,3.02,2.16,4.84,1.81c1.87-0.36,5.23-0.34,6.39,0.61
		c0.12,0.1,0.45,0.37,0.45,1.53v9.56c0,1.48,0.64,2.88,1.78,3.82c1.14,0.94,2.62,1.33,4.07,1.05c1.13-0.19,4.54-0.34,6.78,1.29
		c1.46,1.06,2.35,2.82,2.71,5.37c0.1,0.7,0.34,1.34,0.69,1.9c0,0.04,0,0.08,0.01,0.13c0.14,1.29,0.93,7.6,3.25,15.08
		c-6.19-2.1-12.48-7.76-19.95-14.47c-10.65-9.57-23.9-21.47-42.36-26.59c-15.51-4.3-31.47-1.46-46.15,8.2
		c-8.94,5.89-14.83,12.6-16.79,15c-3.93,2-5.64,0.93-6.02,0.63c-1.2-1.54-7.36-9.09-17.29-15.63c-14.69-9.67-30.64-12.5-46.15-8.2
		c-18.46,5.12-31.71,17.03-42.36,26.59c-6.99,6.28-12.95,11.63-18.76,14.02c2.21-7.28,2.97-13.36,3.11-14.63
		c0-0.04,0.01-0.08,0.01-0.13c0.35-0.56,0.59-1.2,0.69-1.9c0.36-2.55,1.25-4.31,2.71-5.37c2.24-1.63,5.66-1.48,6.74-1.29
		c1.45,0.28,2.95-0.11,4.09-1.05c1.14-0.94,1.8-2.34,1.8-3.82v-9.56c0-1.16,0.33-1.43,0.45-1.53c1.16-0.96,4.51-0.97,6.36-0.62
		c1.85,0.37,3.77-0.27,4.92-1.76c1.15-1.49,1.39-3.44,0.57-5.13c-0.1-0.23-2.41-5.67,1.23-10.12c5.19-6.35,17.9-14.86,18.03-14.94
		c1.86-1.24,2.66-3.57,1.95-5.69c-0.6-1.81-15.11-44.39-46.21-56.56c-10.02-3.92-18.48-4.27-25.16-1.04
		c-0.37,0.18-0.72,0.37-1.07,0.56C109.76,132.27,111.42,129.92,113.36,127.86z M252.94,252.95c0,0,0-0.01-0.02-0.02
		c-0.02-0.02-0.05-0.07-0.11-0.15c0-0.01-0.01-0.01,0-0.01C252.81,252.77,252.94,252.95,252.94,252.95z M114.96,215.2
		c-7.67-21.66-11.6-39.86-11.81-54.52c0.17-0.17,0.34-0.35,0.49-0.55c0.82-1.09,1.2-2.33,1.78-4.22c1.17-3.8,3.11-10.17,8.34-12.69
		c4.09-1.98,9.89-1.52,17.24,1.35c22.08,8.64,35.16,37.12,39.13,47.03c-4.51,3.22-12.59,9.33-16.95,14.66
		c-3.72,4.55-4.47,9.45-4.24,13.32c-2.51,0.3-5.24,1.1-7.45,2.91c-1.86,1.53-4.08,4.36-4.08,9.2v4.53c-2.58,0.28-5.65,1.1-8.44,3.09
		c-1,0.72-2.11,1.7-3.15,3.02C123.39,237.28,119.8,228.85,114.96,215.2z M397.2,292.67c2.18,1.94,4.07,3.5,5.74,4.89
		c1.78,1.47,3.76,3.12,4.57,4.04c-0.14,0.43-0.45,1.18-1.1,2.4c-3.85,7.22-10.75,10.85-10.78,10.86c-1.98,0.96-3.48,2.6-4.02,4.74
		c-0.53,2.12-0.15,4.21,1.12,5.98c0.39,0.67,2.29,4.4-0.23,8.81c-4.01,7.01-10.06,11.92-23.11,18.76
		c-4.45,2.33-9.62,5.51-15.08,8.86c-10.45,6.42-23.46,14.41-31.27,15.9c-1.06,0.2-2.01,0.62-2.84,1.2
		c-0.63,0.04-1.26,0.15-1.89,0.35c-12.46,4.09-27.38,6.52-44.36,7.24h-35.08c-15.11-0.64-28.63-2.64-40.17-5.95l-9-2.66
		c-0.24-0.07-0.48-0.13-0.72-0.17c-7.81-1.49-20.82-9.48-31.27-15.9c-5.47-3.36-10.63-6.53-15.08-8.86
		c-13.06-6.84-19.11-11.75-23.11-18.76c-2.52-4.41-0.62-8.13-0.23-8.81c1.26-1.76,1.6-3.85,1.09-5.95
		c-0.52-2.12-2.03-3.79-3.99-4.76c-0.07-0.03-6.91-3.6-10.78-10.86c-0.65-1.22-0.96-1.97-1.1-2.4c0.81-0.93,2.79-2.57,4.57-4.04
		c1.67-1.38,3.56-2.95,5.74-4.89c3.74-3.32,6.66-7.59,8.93-12.05c10.81-0.76,19.69-8.73,29.81-17.82
		c10.39-9.34,22.17-19.92,38.38-24.42c12.76-3.54,25.48-1.26,37.8,6.76c9.52,6.2,15.23,13.67,15.28,13.73
		c0.03,0.05,0.07,0.09,0.1,0.13c0.28,0.34,6.9,8.3,19.34,1.19c0.59-0.34,1.1-0.79,1.5-1.33c0.22-0.29,22.24-29.05,53.08-20.5
		c16.22,4.5,27.99,15.08,38.38,24.42c10.45,9.39,19.59,17.59,30.89,17.88C390.56,285.12,393.47,289.36,397.2,292.67z M397.04,215.2
		c-4.83,13.65-8.43,22.08-10.86,27.14c-1.04-1.32-2.14-2.31-3.15-3.02c-2.79-1.99-5.85-2.81-8.44-3.09v-4.53
		c0-4.84-2.22-7.67-4.08-9.2c-2.21-1.82-4.95-2.61-7.45-2.91c0.23-3.87-0.51-8.77-4.24-13.32c-4.36-5.33-12.44-11.44-16.95-14.66
		c3.96-9.91,16.99-38.36,39.13-47.03c7.35-2.87,13.15-3.33,17.24-1.35c5.23,2.53,7.18,8.89,8.34,12.69
		c0.58,1.88,0.96,3.12,1.78,4.22c0.15,0.2,0.32,0.38,0.49,0.55C408.64,175.34,404.71,193.54,397.04,215.2z M355.63,285.21
		c-14.02-18.47-36.31-15.29-36.31-15.29c-19.11-0.64-49.69,26.76-43.96,50.33c5.73,23.57,31.85,29.94,63.07,28.67
		c31.21-1.27,42.04-19.11,38.22-31.21S369.65,303.68,355.63,285.21z M323.27,311.33c0,1.4-0.36,2.71-1.06,3.92
		c-0.41,0.52-0.81,1.05-1.22,1.57c-0.97,0.96-2.11,1.63-3.43,2c-0.69,0.09-1.38,0.19-2.07,0.28c-1.07,0.04-2.07-0.18-3-0.67
		c-0.96-0.31-1.8-0.85-2.5-1.61c-0.76-0.7-1.29-1.54-1.61-2.5c-0.49-0.93-0.71-1.93-0.67-3v-0.64c0-1.4,0.36-2.71,1.06-3.92
		c0.41-0.52,0.81-1.05,1.22-1.57c0.97-0.96,2.11-1.63,3.43-2c0.69-0.09,1.38-0.19,2.07-0.28c1.07-0.04,2.07,0.18,3,0.67
		c0.96,0.31,1.8,0.85,2.5,1.61c0.76,0.7,1.29,1.54,1.61,2.5c0.49,0.93,0.71,1.93,0.67,3V311.33z M192.68,269.92
		c0,0-22.3-3.19-36.31,15.29c-14.01,18.47-17.2,20.39-21.02,32.49c-3.82,12.1,7.01,29.94,38.22,31.21
		c31.21,1.27,57.33-5.1,63.07-28.67C242.37,296.68,211.79,269.28,192.68,269.92z M204.28,311.33c0.04,1.07-0.18,2.07-0.67,3
		c-0.31,0.96-0.85,1.8-1.61,2.5c-0.7,0.76-1.54,1.29-2.5,1.61c-0.93,0.49-1.93,0.71-3,0.67c-0.69-0.09-1.38-0.19-2.07-0.28
		c-1.32-0.37-2.46-1.04-3.43-2c-0.41-0.52-0.81-1.05-1.22-1.57c-0.7-1.21-1.06-2.52-1.06-3.92v-0.64c-0.04-1.07,0.18-2.07,0.67-3
		c0.31-0.96,0.85-1.8,1.61-2.5c0.7-0.76,1.54-1.29,2.5-1.61c0.93-0.49,1.93-0.71,3-0.67c0.69,0.09,1.38,0.19,2.07,0.28
		c1.32,0.37,2.46,1.04,3.43,2c0.41,0.52,0.81,1.05,1.22,1.57c0.7,1.21,1.06,2.52,1.06,3.92V311.33z M274.43,335.16
		c0.26,7.54-11.43,14.03-11.43,14.03c-1.3,1.56-3.93,0-3.93,0s-11.69-6.5-11.43-14.03c0.26-7.54,10.13-7.02,10.13-7.02h6.52
		C264.29,328.15,274.17,327.63,274.43,335.16z"></path>
  </g>
</svg>
